# xmcd
#
# Track frame offsets:
# 150
# 11295
# 22500
# 34965
# 46057
# 55564
# 66250
# 77332
# 90120
# 104075
# 115000
# 125477
# 137760
#
# Disc length: 1998 seconds
#
#
# Revision: 0
# Processed by: cddbd v1.5.1PL0 Copyright (c) Steve Scherf et al.
# Submitted via: FreeRIP 2.20 
#
DISCID=8f07cc0d
DTITLE=Brook Benton - Endlessly vol.1
DYEAR=1900
DGENRE=Rhythmic Soul
TTITLE0=It's Just A Matter Of Time
TTITLE1=So Many Ways
TTITLE2=Baby You've Got What It Takes
TTITLE3=Endlessly
TTITLE4=So Close
TTITLE5=Thank You Pretty Baby
TTITLE6=The Ties That Bind
TTITLE7=Think Twice
TTITLE8=For My Baby
TTITLE9=Can I Help It
TTITLE10=Bring My Love
TTITLE11=Some Of My Best Friends
TTITLE12=This Time Of The Year
EXTD=
EXTT0=
EXTT1=
EXTT2=
EXTT3=
EXTT4=
EXTT5=
EXTT6=
EXTT7=
EXTT8=
EXTT9=
EXTT10=
EXTT11=
EXTT12=
PLAYORDER=
